FICHA TECNICA:

TÍTULO ORIGINAL	Once Upon a Time in America
AÑO	 1984
DURACIÓN	Trailers/Vídeos 225 min.
PAÍS	Sección visual
DIRECTOR	Sergio Leone
GUIÓN	Sergio Leone, Leonardo Benevenuti, Piero Bernardi, Enrico Mendioli, Franco Arcalli, Franco Ferrini
MÚSICA	Ennio Morricone
FOTOGRAFÍA	Tonino Delli Colli
REPARTO	Robert De Niro, James Woods, Elizabeth McGovern, Tuesday Weld, William Forsythe, Treat Williams, Jennifer Connelly, Burt Young, Joe Pesci, Danny Aiello, Clem Caserta, James Russo, Mario Brega, Brian Bloom, Chuck Low, James Hayden, Larry Rapp, Richard Bright, Rusty Jacobs, Scott Schutzman Tiler
PRODUCTORA	Warner Bros. Productor: Arnon Milchan
PREMIOS	1985: 2 nominaciones a los Globos de Oro: Mejor director, banda sonora original
1985: 2 premios BAFTA: Mejor vestuario, banda sonora original. 5 nominaciones
GÉNERO	Drama | Mafia. Crimen. Amistad. Años 20. Años 30. Años 60

SINOPSIS:

Principios del siglo XX. David Aaronson, un pobre chaval judío, conoce en los suburbios de Manhattan a Max, otro joven de origen hebreo dispuesto a llegar lejos por cualquier método. Entre ellos nace una gran amistad y, con otros colegas, forman una banda que prospera rápidamente, llegando a convertirse, en los tiempos de la Ley Seca (1920-1933), en unos importantes mafiosos.


Video
ID : 1
Format : AVC
Format/Info : Advanced Video Codec
Format profile : High@L4.1
Format settings, CABAC : Yes
Format settings, ReFrames : 5 frames
Muxing mode : Header stripping
Codec ID : V_MPEG4/ISO/AVC
Duration : 3h 49mn
Bit rate : 4 181 Kbps
Width : 1 280 pixels
Height : 720 pixels
Display aspect ratio : 16:9
Frame rate : 23.976 fps
Color space : YUV
Chroma subsampling : 4:2:0
Bit depth : 8 bits
Scan type : Progressive
Bits/(Pixel*Frame) : 0.189
Stream size : 6.54 GiB (92%)
Language : Italian
Default : Yes
Forced : No

Audio
ID : 2
Format : AC-3
Format/Info : Audio Coding 3
Mode extension : CM (complete main)
Muxing mode : Header stripping
Codec ID : A_AC3
Duration : 3h 49mn
Bit rate mode : Constant
Bit rate : 256 Kbps
Channel(s) : 6 channels
Channel positions : Front: L C R, Side: L R, LFE
Sampling rate : 48.0 KHz
Bit depth : 16 bits
Compression mode : Lossy
Delay relative to video : 10ms
Stream size : 420 MiB (6%)
Title : Esp Ac3 5.1
Language : Spanish
Default : No
Forced : No

Text
ID : 3
Format : UTF-8
Codec ID : S_TEXT/UTF8
Codec ID/Info : UTF-8 Plain Text
Title : Sub Esp
Language : Spanish
Default : No
Forced : No